<?xml version="1.0" standalone="no"?>
<!DOCTYPE svg PUBLIC "-//W3C//DTD SVG 20010904//EN"
 "http://www.w3.org/TR/2001/REC-SVG-20010904/DTD/svg10.dtd">
<svg version="1.0" xmlns="http://www.w3.org/2000/svg"
 width="200.000000pt" height="200.000000pt" viewBox="0 0 200.000000 200.000000"
 preserveAspectRatio="xMidYMid meet">

<g transform="translate(0.000000,200.000000) scale(0.100000,-0.100000)"
fill="#000000" stroke="none">
<path d="M882 1405 c12 -24 23 -43 25 -42 6 6 -30 87 -38 87 -5 0 1 -20 13
-45z"/>
<path d="M1002 1400 c0 -19 2 -27 5 -17 2 9 2 25 0 35 -3 9 -5 1 -5 -18z"/>
<path d="M1126 1422 c-10 -17 -26 -62 -21 -62 7 0 37 62 32 67 -3 2 -8 0 -11
-5z"/>
<path d="M790 1364 c8 -8 23 -20 34 -26 19 -10 18 -8 -3 16 -26 27 -53 37 -31
10z"/>
<path d="M1193 1368 c-24 -32 -24 -41 0 -19 15 14 27 26 27 28 0 8 -19 2 -27
-9z"/>
<path d="M680 1305 c0 -7 78 -45 92 -45 7 1 -7 12 -32 25 -45 24 -60 29 -60
20z"/>
<path d="M1270 1285 c-25 -13 -41 -24 -37 -25 11 0 87 39 87 45 0 7 0 7 -50
-20z"/>
<path d="M855 1278 c-62 -34 -73 -106 -27 -179 38 -60 138 -149 166 -149 51 0
172 121 196 196 32 96 -41 170 -133 135 -13 -5 -31 -17 -41 -26 -15 -16 -18
-15 -47 9 -33 28 -79 34 -114 14z m101 -32 c26 -21 27 -25 15 -53 -7 -17 -11
-50 -9 -74 3 -40 6 -44 30 -47 42 -5 55 31 35 97 l-15 51 30 25 c51 43 120 26
133 -34 7 -34 -13 -89 -49 -132 -35 -41 -115 -109 -129 -109 -21 0 -119 92
-149 139 -42 66 -36 119 17 149 31 18 61 14 91 -12z m59 -137 c-4 -10 -13 -19
-21 -19 -15 0 -19 37 -7 80 7 25 7 25 20 -8 8 -19 11 -42 8 -53z"/>
<path d="M718 1163 c12 -2 30 -2 40 0 9 3 -1 5 -23 4 -22 0 -30 -2 -17 -4z"/>
<path d="M1258 1163 c12 -2 30 -2 40 0 9 3 -1 5 -23 4 -22 0 -30 -2 -17 -4z"/>
<path d="M728 1054 c-16 -8 -28 -17 -28 -19 0 -7 60 17 66 26 8 13 -7 10 -38
-7z"/>
<path d="M1231 1065 c9 -9 79 -35 79 -30 0 3 -16 13 -35 21 -34 14 -52 18 -44
9z"/>
<path d="M761 979 c-13 -11 -21 -22 -19 -25 3 -3 19 6 34 20 34 30 20 35 -15
5z"/>
<path d="M1229 976 c14 -14 26 -24 29 -22 7 8 -8 25 -31 37 -21 11 -21 10 2
-15z"/>
<path d="M817 915 c-10 -14 -14 -25 -9 -25 6 0 17 11 26 25 21 32 7 32 -17 0z"/>
<path d="M1170 937 c0 -2 14 -16 32 -33 l31 -29 -22 33 c-18 26 -41 42 -41 29z"/>
<path d="M892 878 c-16 -44 -9 -45 11 -3 9 19 13 35 9 35 -4 0 -13 -14 -20
-32z"/>
<path d="M1111 900 c0 -8 8 -31 19 -50 24 -45 24 -28 0 25 -10 22 -19 33 -19
25z"/>
<path d="M1012 870 c0 -19 2 -27 5 -17 2 9 2 25 0 35 -3 9 -5 1 -5 -18z"/>
<path d="M472 700 c-15 -89 -15 -90 3 -90 9 0 15 9 15 24 0 35 10 56 26 56 10
0 14 -12 14 -40 0 -32 4 -40 18 -40 14 0 17 8 16 48 -1 46 -1 47 -32 46 -29
-2 -30 0 -25 32 4 25 2 34 -9 34 -10 0 -18 -22 -26 -70z"/>
<path d="M875 758 c-2 -7 -9 -40 -15 -72 -11 -64 -4 -83 27 -72 13 5 14 9 5
15 -9 5 -10 20 -2 61 5 29 10 59 10 66 0 17 -19 18 -25 2z"/>
<path d="M1073 755 c-8 -15 -33 -120 -33 -142 0 -2 7 -3 15 -3 9 0 15 9 15 23
0 13 6 31 13 42 20 26 40 10 33 -26 -4 -23 -2 -29 12 -29 16 0 18 15 13 84 -1
4 -12 6 -25 4 -22 -5 -25 -1 -28 31 -3 33 -4 34 -15 16z"/>
<path d="M1226 747 c-3 -13 -8 -49 -12 -80 -6 -53 -5 -57 14 -57 23 0 38 16
21 22 -9 3 -9 17 0 56 6 29 11 60 11 67 0 24 -27 17 -34 -8z"/>
<path d="M1300 755 c0 -8 7 -15 15 -15 8 0 15 7 15 15 0 8 -7 15 -15 15 -8 0
-15 -7 -15 -15z"/>
<path d="M1366 728 c-39 -185 -35 -210 29 -194 46 12 52 62 19 144 -4 7 2 12
15 12 12 0 21 5 21 10 0 6 -11 10 -25 10 -18 0 -25 5 -25 20 0 27 -28 25 -34
-2z m34 -118 c0 -40 -3 -50 -16 -50 -14 0 -15 7 -10 38 3 20 6 43 6 50 0 6 5
12 10 12 6 0 10 -22 10 -50z"/>
<path d="M932 683 c-7 -33 -7 -52 0 -60 16 -19 53 -16 73 7 14 16 15 20 4 20
-8 0 -20 -5 -27 -12 -16 -16 -35 3 -30 28 2 13 13 20 36 22 40 4 42 22 2 22
-16 0 -30 5 -30 10 0 6 -4 10 -9 10 -5 0 -14 -21 -19 -47z"/>
<path d="M618 698 c-21 -17 -29 -65 -12 -79 17 -14 66 -8 72 9 3 9 -3 11 -22
6 -20 -5 -26 -2 -26 10 0 11 9 16 29 16 35 0 48 15 31 35 -15 18 -51 19 -72 3z
m52 -18 c0 -5 -9 -10 -21 -10 -11 0 -17 5 -14 10 3 6 13 10 21 10 8 0 14 -4
14 -10z"/>
<path d="M735 694 c-8 -9 -15 -31 -15 -49 l0 -34 50 1 c28 1 53 5 56 10 3 4 0
8 -6 8 -6 0 -8 14 -4 38 6 39 6 39 -30 40 -20 1 -42 -5 -51 -14z m50 -14 c10
-16 -5 -50 -21 -50 -8 0 -14 10 -14 23 0 34 21 50 35 27z"/>
<path d="M1286 688 c-3 -13 -6 -35 -6 -50 0 -23 4 -28 25 -28 14 0 25 5 25 10
0 6 -5 10 -11 10 -7 0 -8 14 -4 40 5 32 4 40 -8 40 -8 0 -17 -10 -21 -22z"/>
<path d="M1481 696 c-7 -9 -14 -30 -14 -48 -2 -31 0 -33 34 -36 24 -2 40 2 50
14 13 16 11 17 -18 11 -25 -5 -33 -3 -33 8 0 10 11 15 36 15 31 0 35 3 32 23
-2 17 -10 23 -39 25 -23 2 -40 -2 -48 -12z m54 -16 c3 -5 -3 -10 -15 -10 -12
0 -18 5 -15 10 3 6 10 10 15 10 5 0 12 -4 15 -10z"/>
</g>
</svg>
